<?xml version="1.0" encoding="utf-8"?>
<!-- Generator: Adobe Illustrator 16.0.0, SVG Export Plug-In . SVG Version: 6.00 Build 0)  -->
<!DOCTYPE svg PUBLIC "-//W3C//DTD SVG 1.1//EN" "http://www.w3.org/Graphics/SVG/1.1/DTD/svg11.dtd">
<svg version="1.1" id="Layer_1" xmlns="http://www.w3.org/2000/svg" xmlns:xlink="http://www.w3.org/1999/xlink" x="0px" y="0px"
	 width="128px" height="128px" viewBox="0 0 128 128" enable-background="new 0 0 128 128" xml:space="preserve">
<g>
	<path d="M102.027,59.5H68.5V26.472c0-2.608-0.067-2.972-2.676-2.972H64.25c-2.608,0-6.75,0.364-6.75,2.972V59.5H28.046
		c-2.609,0-6.546,0.567-6.546,3.176v1.574c0,2.608,3.938,6.25,6.546,6.25H57.5v29.954c0,2.608,4.142,6.046,6.75,6.046h1.574
		c2.608,0,2.676-3.438,2.676-6.046V70.5h33.527c2.609,0,2.473-3.642,2.473-6.25v-1.574C104.5,60.067,104.637,59.5,102.027,59.5z"/>
</g>
</svg>
