<?xml version="1.0" encoding="utf-8"?>
<!-- Generator: Adobe Illustrator 16.0.0, SVG Export Plug-In . SVG Version: 6.00 Build 0)  -->
<!DOCTYPE svg PUBLIC "-//W3C//DTD SVG 1.1//EN" "http://www.w3.org/Graphics/SVG/1.1/DTD/svg11.dtd">
<svg version="1.1" id="Layer_1" xmlns="http://www.w3.org/2000/svg" xmlns:xlink="http://www.w3.org/1999/xlink" x="0px" y="0px"
	 width="128px" height="128px" viewBox="0 0 128 128" enable-background="new 0 0 128 128" xml:space="preserve">
<path d="M100.979,108.061c-6.083,0-11.013-4.934-11.013-11.018c0-0.627,0.063-1.234,0.163-1.838l-10.697-6.889
	c-4.025,4.387-9.794,7.154-16.219,7.154c-6.276,0-11.923-2.637-15.935-6.846l-9.487,6.115c0.155,0.74,0.244,1.514,0.244,2.303
	c0,6.084-4.933,11.018-11.017,11.018c-6.083,0-11.013-4.934-11.013-11.018c0-6.082,4.93-11.014,11.013-11.014
	c1.799,0,3.493,0.441,4.991,1.205l10.367-6.68c-0.763-2.234-1.194-4.621-1.194-7.111c0-10.546,7.412-19.347,17.309-21.511V40.896
	c-3.719-1.767-6.295-5.55-6.295-9.94c0-6.083,4.932-11.016,11.016-11.016c6.083,0,11.017,4.933,11.017,11.016
	c0,4.39-2.578,8.173-6.297,9.94v11.036c9.897,2.164,17.31,10.965,17.31,21.511c0,2.34-0.373,4.59-1.047,6.709l11.354,7.318
	c1.602-0.914,3.451-1.441,5.429-1.441c6.083,0,11.014,4.932,11.014,11.014C111.993,103.127,107.063,108.061,100.979,108.061z
	 M63.214,64.059c-5.18,0-9.38,4.201-9.38,9.384c0,5.182,4.201,9.379,9.38,9.379c5.183,0,9.381-4.197,9.381-9.379
	C72.595,68.26,68.396,64.059,63.214,64.059z"/>
</svg>
