<?xml version="1.0" encoding="utf-8"?>
<!-- Generator: Adobe Illustrator 16.0.0, SVG Export Plug-In . SVG Version: 6.00 Build 0)  -->
<!DOCTYPE svg PUBLIC "-//W3C//DTD SVG 1.1//EN" "http://www.w3.org/Graphics/SVG/1.1/DTD/svg11.dtd">
<svg version="1.1" id="Layer_1" xmlns="http://www.w3.org/2000/svg" xmlns:xlink="http://www.w3.org/1999/xlink" x="0px" y="0px"
	 width="128px" height="128px" viewBox="0 0 128 128" enable-background="new 0 0 128 128" xml:space="preserve">
<g>
	<path d="M106.356,27.5H66.794H38.308H25.647c-2.623,0-7.147,0.553-7.147,3.174v14.243v18.991v1.583v18.99
		c0,2.622,4.526,6.02,7.147,6.02H33.5v14.554c0,2.61,3.125,3.872,4.969,2.027L57.298,90.5h23.738h25.32
		c2.623,0,3.144-3.398,3.144-6.02V70.237V44.917V30.674C109.5,28.053,108.979,27.5,106.356,27.5z M51.472,46.246
		c0-0.837,0.028-1.57,0.028-1.777c0-0.631,0-2.303,0-2.775c0-3.82,2.293-7.063,3.244-8.531c0.368-0.627,1.458-1.307,2.41-1.882
		c3.004-1.938,8.434-3.663,13.231-0.21c3.535-1.15,5.404,1.465,5.775,2.092c0.948,1.468,2.174,4.711,2.384,8.531
		c0.054,0.473,0.086,2.145,0.03,2.72c0.792,0.161,1.021,0.867,1.021,1.755c0,0,0.063,3.105-0.306,4.833
		c-0.318,1.725-1.47,3.498-2.421,3.498h-0.106c-0.525,3-1.106,4.585-1.793,5.63c-1.899,3.035-6.118,5.37-8.861,5.37h-0.053h-0.105
		h-0.157h-0.056c-2.689,0-6.942-2.903-8.84-5.938c-0.634-1.046-1.246-3.955-1.774-5.836c-0.949-0.054-2.584-1.542-2.903-3.112
		C51.957,49.045,51.472,46.246,51.472,46.246z M95.279,86.5H66.003H36.725c0,0,0-1.284,0.949-5.631
		c1.057-4.865,1.267-6.171,7.492-8.214c1.527-0.521,8.019-3.182,8.967-3.547c0.21-0.052,2.532-4.466,3.534-4.466
		c0.949,0.784,8.335,8.106,8.335,8.106s7.384-7.506,8.386-8.187c1.161,0,3.271,4.298,3.482,4.35c1.002,0.367,7.437,2.81,9.02,3.333
		c6.173,2.041,6.435,3.761,7.491,8.628C95.331,85.216,95.279,86.5,95.279,86.5z"/>
</g>
</svg>
