<?xml version="1.0" encoding="utf-8"?>
<!-- Generator: Adobe Illustrator 16.0.0, SVG Export Plug-In . SVG Version: 6.00 Build 0)  -->
<!DOCTYPE svg PUBLIC "-//W3C//DTD SVG 1.1//EN" "http://www.w3.org/Graphics/SVG/1.1/DTD/svg11.dtd">
<svg version="1.1" id="Layer_1" xmlns="http://www.w3.org/2000/svg" xmlns:xlink="http://www.w3.org/1999/xlink" x="0px" y="0px"
	 width="128px" height="128px" viewBox="0 0 128 128" enable-background="new 0 0 128 128" xml:space="preserve">
<g>
	<g>
		<g>
			<path d="M47.873,90.769C39.994,86.113,35.1,77.542,35.1,68.4c0-8.838,4.434-16.988,11.859-21.803
				c0.561-0.363,0.945-0.923,1.084-1.576c0.141-0.652,0.018-1.32-0.346-1.881C47.234,42.426,46.449,42,45.596,42
				c-0.482,0-0.951,0.139-1.357,0.402C35.385,48.143,30.1,57.861,30.1,68.4c0,10.901,5.836,21.122,15.23,26.674
				c1.152,0.68,2.75,0.26,3.424-0.881C49.455,93.007,49.061,91.471,47.873,90.769z"/>
			<path d="M53.379,81.055c-4.457-2.713-7.119-7.443-7.119-12.654s2.662-9.941,7.119-12.654c0.707-0.43,0.932-1.355,0.502-2.062
				c-0.273-0.451-0.754-0.72-1.283-0.72c-0.273,0-0.543,0.075-0.779,0.219c-5.357,3.261-8.559,8.949-8.559,15.217
				c0,6.267,3.199,11.955,8.559,15.217c0.695,0.422,1.645,0.182,2.061-0.502c0.209-0.342,0.271-0.745,0.178-1.135
				C53.961,81.592,53.721,81.263,53.379,81.055z"/>
			<path d="M78.859,42.402C78.455,42.139,77.984,42,77.504,42c-0.854,0-1.639,0.426-2.102,1.141
				c-0.363,0.561-0.486,1.229-0.348,1.881c0.141,0.653,0.525,1.213,1.086,1.576C83.566,51.412,88,59.563,88,68.4
				c0,9.142-4.895,17.713-12.775,22.368c-1.186,0.702-1.58,2.238-0.881,3.425c0.674,1.141,2.273,1.561,3.426,0.881
				C87.164,89.522,93,79.302,93,68.4C93,57.861,87.715,48.143,78.859,42.402z"/>
			<path d="M79.838,68.4c0-6.268-3.199-11.956-8.557-15.217c-0.236-0.144-0.506-0.219-0.779-0.219c-0.529,0-1.01,0.269-1.283,0.72
				c-0.43,0.706-0.205,1.632,0.502,2.062c4.457,2.713,7.117,7.443,7.117,12.654s-2.66,9.941-7.117,12.654
				c-0.342,0.208-0.582,0.537-0.678,0.926c-0.094,0.39-0.031,0.793,0.178,1.135c0.414,0.684,1.365,0.924,2.061,0.502
				C76.639,80.355,79.838,74.667,79.838,68.4z"/>
		</g>
	</g>
	<path d="M68.948,68.476c0,4.101-3.324,7.425-7.425,7.425l0,0c-4.1,0-7.424-3.324-7.424-7.425l0,0c0-4.1,3.324-7.424,7.424-7.424
		l0,0C65.624,61.051,68.948,64.375,68.948,68.476L68.948,68.476z"/>
</g>
</svg>
