<?xml version="1.0" encoding="utf-8"?>
<!-- Generator: Adobe Illustrator 16.0.0, SVG Export Plug-In . SVG Version: 6.00 Build 0)  -->
<!DOCTYPE svg PUBLIC "-//W3C//DTD SVG 1.1//EN" "http://www.w3.org/Graphics/SVG/1.1/DTD/svg11.dtd">
<svg version="1.1" id="Layer_1" xmlns="http://www.w3.org/2000/svg" xmlns:xlink="http://www.w3.org/1999/xlink" x="0px" y="0px"
	 width="128px" height="128px" viewBox="0 0 128 128" enable-background="new 0 0 128 128" xml:space="preserve">
<g>
	<g>
		<path fill="#231F20" d="M85.59,74.1c0-8.477,6.889-15.42,15.355-15.491c1.47,0.011,2.887,0.241,4.231,0.634V36.217
			c0-2.238-1.958-4.197-4.196-4.197H26.826c-2.239,0-4.197,1.959-4.197,4.197v48.971c0,2.237,1.958,4.196,4.197,4.196h4.198
			l2.798,2.8h8.395l2.798-2.8h36.377v-4.196c0-3.106,1.694-5.824,4.209-7.274L85.59,74.1z"/>
		<path fill="#231F20" d="M54.809,25.024h18.189v4.197h5.598v-5.597c0-2.238-1.535-4.198-4.199-4.198H53.41
			c-2.666,0-4.197,1.96-4.197,4.198v5.597h5.597L54.809,25.024L54.809,25.024z"/>
		<path fill="#231F20" d="M112.174,80.988h-0.021c0.014-4.092,0.021-6.9,0.021-6.9c0-6.189-5.014-11.231-11.193-11.282
			c-6.18,0.051-11.191,5.092-11.191,11.282c0,0,0.008,2.811,0.021,6.9h-0.021c-2.316,0-4.198,1.881-4.198,4.197v18.188
			c0,0.201,0.033,0.394,0.06,0.585c0.019,0.123,0.031,0.247,0.06,0.366c0.034,0.147,0.084,0.286,0.134,0.427
			c0.037,0.114,0.073,0.229,0.123,0.338c0.061,0.135,0.137,0.262,0.21,0.389c0.062,0.103,0.115,0.207,0.183,0.303
			c0.084,0.121,0.185,0.23,0.281,0.343c0.076,0.087,0.146,0.179,0.229,0.257c0.109,0.107,0.232,0.197,0.352,0.29
			c0.09,0.067,0.17,0.146,0.264,0.206c0.135,0.089,0.279,0.157,0.422,0.229c0.096,0.049,0.183,0.106,0.281,0.146
			c0.166,0.068,0.34,0.114,0.515,0.16c0.087,0.023,0.17,0.061,0.258,0.078c0.271,0.053,0.548,0.082,0.832,0.082h22.386
			c0.284,0,0.563-0.029,0.83-0.082c0.09-0.018,0.172-0.055,0.26-0.078c0.172-0.046,0.35-0.092,0.516-0.16
			c0.098-0.039,0.186-0.098,0.281-0.146c0.142-0.07,0.287-0.14,0.42-0.229c0.093-0.063,0.176-0.139,0.264-0.206
			c0.119-0.093,0.243-0.183,0.352-0.29c0.082-0.078,0.152-0.17,0.228-0.257c0.1-0.11,0.198-0.222,0.282-0.343
			c0.067-0.096,0.121-0.2,0.183-0.303c0.074-0.127,0.149-0.254,0.211-0.389c0.049-0.107,0.084-0.224,0.123-0.338
			c0.049-0.141,0.099-0.277,0.134-0.427c0.027-0.119,0.041-0.243,0.059-0.366c0.025-0.191,0.06-0.384,0.06-0.585V85.188
			C116.371,82.869,114.491,80.988,112.174,80.988z M102.38,95.482v3.695h-1.399h-1.399v-3.695c-1.284-0.545-2.187-1.816-2.187-3.301
			c0-1.979,1.604-3.584,3.586-3.584c1.979,0,3.584,1.604,3.584,3.584C104.564,93.666,103.664,94.938,102.38,95.482z M107.977,80.988
			H93.984v-6.967c0-3.892,3.117-7.051,6.996-7.104c3.877,0.054,6.996,3.213,6.996,7.104V80.988L107.977,80.988z"/>
	</g>
</g>
</svg>
