<?xml version="1.0" encoding="utf-8"?>
<!-- Generator: Adobe Illustrator 16.0.0, SVG Export Plug-In . SVG Version: 6.00 Build 0)  -->
<!DOCTYPE svg PUBLIC "-//W3C//DTD SVG 1.1//EN" "http://www.w3.org/Graphics/SVG/1.1/DTD/svg11.dtd">
<svg version="1.1" id="Layer_1" xmlns="http://www.w3.org/2000/svg" xmlns:xlink="http://www.w3.org/1999/xlink" x="0px" y="0px"
	 width="128px" height="128px" viewBox="0 0 128 128" enable-background="new 0 0 128 128" xml:space="preserve">
<g>
	<path fill="#231F20" d="M54.81,25.024h18.188v4.197h5.598v-5.597c0-2.238-1.535-4.198-4.199-4.198H53.41
		c-2.666,0-4.197,1.96-4.197,4.198v5.597h5.597V25.024z"/>
	<path fill="#231F20" d="M100.98,32.037V32.02H26.826c-2.239,0-4.197,1.959-4.197,4.197v48.971c0,2.237,1.958,4.196,4.197,4.196
		h4.198l2.798,2.8h8.395l2.798-2.8h37.776l2.799,2.8h8.395l2.799-2.8h4.197v-0.017c2.173-0.089,4.043-1.995,4.043-4.18V36.217
		C105.023,34.031,103.153,32.125,100.98,32.037z"/>
</g>
</svg>
