<?xml version="1.0" encoding="utf-8"?>
<!-- Generator: Adobe Illustrator 16.0.0, SVG Export Plug-In . SVG Version: 6.00 Build 0)  -->
<!DOCTYPE svg PUBLIC "-//W3C//DTD SVG 1.1//EN" "http://www.w3.org/Graphics/SVG/1.1/DTD/svg11.dtd">
<svg version="1.1" id="Layer_1" xmlns="http://www.w3.org/2000/svg" xmlns:xlink="http://www.w3.org/1999/xlink" x="0px" y="0px"
	 width="128px" height="128px" viewBox="0 0 128 128" enable-background="new 0 0 128 128" xml:space="preserve">
<g id="Layer_1_1_">
</g>
<g>
	<path d="M41.894,91.688l0.128,0.13l0.112,0.143l0.202,0.265c0.057,0.076,0.11,0.154,0.174,0.225
		c0.51,0.517,1.141,0.924,1.865,1.202c0.709,0.289,1.384,0.423,2.078,0.423c1.418,0,2.751-0.559,3.754-1.574
		c0.254-0.257,0.485-0.55,0.706-0.895l0.173-0.272l0.224-0.229l52.169-53.691c2.091-2.113,2.091-5.521,0.021-7.616
		c-1.003-1.015-2.337-1.574-3.756-1.574c-1.418,0-2.753,0.559-3.756,1.574L48.51,78.66l-2.217,2.283l-2.237-2.264L31.017,65.49
		c-1.003-1.013-2.336-1.574-3.754-1.574s-2.753,0.561-3.756,1.574c-1.003,1.014-1.556,2.359-1.556,3.791
		c0,1.437,0.553,2.784,1.556,3.799L41.894,91.688z"/>
</g>
</svg>
