<?xml version="1.0" encoding="utf-8"?>
<!-- Generator: Adobe Illustrator 16.0.0, SVG Export Plug-In . SVG Version: 6.00 Build 0)  -->
<!DOCTYPE svg PUBLIC "-//W3C//DTD SVG 1.1//EN" "http://www.w3.org/Graphics/SVG/1.1/DTD/svg11.dtd">
<svg version="1.1" xmlns="http://www.w3.org/2000/svg" xmlns:xlink="http://www.w3.org/1999/xlink" x="0px" y="0px" width="128px"
	 height="128px" viewBox="0 0 128 128" enable-background="new 0 0 128 128" xml:space="preserve">
<g id="Layer_1">
</g>
<g id="Layer_2">
	<g>
		<path d="M94.228,86.262L71.467,63.5l22.761-22.762c1.886-1.886,1.886-4.941,0-6.827l-1.138-1.138
			c-1.885-1.887-4.943-1.887-6.828,0L63.5,55.533l-22.762-22.76c-1.885-1.887-4.942-1.887-6.828,0l-1.137,1.138
			c-1.887,1.886-1.887,4.941,0,6.827L55.533,63.5l-22.76,22.762c-1.887,1.887-1.887,4.941,0,6.828l1.137,1.138
			c1.885,1.886,4.943,1.886,6.828,0L63.5,71.465l22.762,22.763c1.885,1.886,4.943,1.886,6.828,0l1.138-1.138
			C96.113,91.203,96.113,88.148,94.228,86.262z"/>
	</g>
</g>
</svg>
