<?xml version="1.0" encoding="utf-8"?>
<!-- Generator: Adobe Illustrator 16.0.0, SVG Export Plug-In . SVG Version: 6.00 Build 0)  -->
<!DOCTYPE svg PUBLIC "-//W3C//DTD SVG 1.1//EN" "http://www.w3.org/Graphics/SVG/1.1/DTD/svg11.dtd">
<svg version="1.1" id="Layer_1" xmlns="http://www.w3.org/2000/svg" xmlns:xlink="http://www.w3.org/1999/xlink" x="0px" y="0px"
	 width="128px" height="128px" viewBox="0 0 128 128" enable-background="new 0 0 128 128" xml:space="preserve">
<g>
	<path d="M75.852,107.457h15.803v1.58v3.16H36.346v-3.16v-1.58h15.802v-3.161h23.704V107.457z M22.124,30.025h83.753v53.728H22.124
		V30.025z M25.284,80.593h77.432V33.185H25.284V80.593z M120.099,28.444v56.889c0,6.971-5.671,12.643-12.642,12.643H20.543
		c-6.971,0-12.642-5.672-12.642-12.643V28.444c0-6.971,5.671-12.642,12.642-12.642h86.914
		C114.428,15.803,120.099,21.474,120.099,28.444z M113.777,28.444c0-3.486-2.834-6.321-6.32-6.321H20.543
		c-3.486,0-6.321,2.835-6.321,6.321v56.889c0,3.486,2.835,6.321,6.321,6.321h86.914c3.486,0,6.32-2.835,6.32-6.321V28.444z"/>
</g>
</svg>
