<?xml version="1.0" encoding="utf-8"?>
<!-- Generator: Adobe Illustrator 16.0.0, SVG Export Plug-In . SVG Version: 6.00 Build 0)  -->
<!DOCTYPE svg PUBLIC "-//W3C//DTD SVG 1.1//EN" "http://www.w3.org/Graphics/SVG/1.1/DTD/svg11.dtd">
<svg version="1.1" id="Layer_1" xmlns="http://www.w3.org/2000/svg" xmlns:xlink="http://www.w3.org/1999/xlink" x="0px" y="0px"
	 width="244px" height="164px" viewBox="0 0 244 164" style="enable-background:new 0 0 244 164;" xml:space="preserve">
<g id="Layer_1_1_">
	<g>
		<g>
			<path d="M151.8,132.5c-1.3,0-2.6,0.2-3.9,0.6l-0.6,0.1c-6.9,2.9-14.1,4.4-21.7,4.4c-30.9,0-56-24.9-56-55.6
				c0-30.6,25.1-55.5,56-55.5c7.6,0,15,1.5,22.1,4.6c1.4,0.4,2.7,0.6,4,0.6c5.9,0,11.2-3.9,12.9-9.5c1.8-5.9-0.9-12.2-6.5-15.4
				l-0.8-0.4c-0.5-0.2-0.8-0.4-1.2-0.5C146.4,2,136.1,0,125.7,0C86.1,0,52,28,44.6,66.6l-0.4,2.1H13.3C6,68.8,0,74.7,0,82
				c0,7.3,6,13.2,13.3,13.2h30.8l0.4,2.1C52,136,86.1,164,125.7,164c11.4,0,22.6-2.4,33.2-7.1c5-3.1,7.5-9.3,5.8-14.9
				C163,136.4,157.7,132.5,151.8,132.5z"/>
		</g>
	</g>
</g>
<g id="Layer_2">
	<path d="M230.7,68.8h-73.4c-5.2-12.4-17.6-21.2-32-21.2C106.1,47.6,90.6,63,90.6,82c0,19,15.5,34.4,34.6,34.4
		c14.4,0,26.8-8.7,32-21.1h73.4c7.4,0,13.3-5.9,13.3-13.2C244,74.7,238,68.8,230.7,68.8z"/>
</g>
</svg>
