<?xml version="1.0" encoding="utf-8"?>
<!-- Generator: Adobe Illustrator 16.0.0, SVG Export Plug-In . SVG Version: 6.00 Build 0)  -->
<!DOCTYPE svg PUBLIC "-//W3C//DTD SVG 1.1//EN" "http://www.w3.org/Graphics/SVG/1.1/DTD/svg11.dtd">
<svg version="1.1" id="Layer_1" xmlns="http://www.w3.org/2000/svg" xmlns:xlink="http://www.w3.org/1999/xlink" x="0px" y="0px"
	 width="128px" height="128px" viewBox="0 0 128 128" enable-background="new 0 0 128 128" xml:space="preserve">
<g>
	<path d="M109.755,106.5H64.503H19.25c0.034,0-0.015-0.9,1.444-7.754c1.618-7.584,2.016-8.929,11.579-12.162
		c2.401-0.811,12.369-4.767,13.912-5.335c0.282-0.072,3.873-6.866,5.388-6.866c1.515,1.212,12.93,12.707,12.93,12.707
		s11.413-11.666,12.929-12.777c1.818,0,5.105,6.688,5.388,6.761c1.543,0.568,11.51,4.33,13.912,5.141
		c9.563,3.233,9.964,4.951,11.579,12.535C109.771,105.603,109.722,106.5,109.755,106.5z M83.984,42.902
		c0.039-0.943,0.04-3.571-0.005-4.271c-0.359-5.931-2.165-11.026-3.61-13.361c-0.578-0.933-3.243-5.029-8.728-3.202
		c-7.402-5.437-15.422-2.707-20.052,0.26c-1.487,0.956-2.601,1.992-3.189,2.942c-1.444,2.334-3.25,7.43-3.613,13.361
		c-0.043,0.712-0.043,3.353-0.001,4.316c-1.148,0.341-1.394,1.469-1.394,2.812c0,0,0.036,4.063,0.485,6.524
		c0.449,2.463,2.248,4.505,3.746,4.568c0.818,2.989,1.763,7.196,2.764,8.819c2.965,4.782,9.539,8.207,13.731,8.443
		c0.026,0.011,0.054,0.014,0.083,0.014c0.061,0,0.123-0.003,0.183-0.003c0.062,0,0.122,0.003,0.185,0.003
		c0.027,0,0.057-0.003,0.082-0.014c4.195-0.236,10.767-3.661,13.73-8.443c1.001-1.616,1.944-5.821,2.761-8.798l0.13-0.017
		c1.497,0,3.233-1.859,3.795-4.572c0.562-2.711,0.484-6.524,0.484-6.524C85.551,44.349,85.221,43.173,83.984,42.902z"/>
</g>
</svg>
