<?xml version="1.0" encoding="utf-8"?>
<!-- Generator: Adobe Illustrator 16.0.0, SVG Export Plug-In . SVG Version: 6.00 Build 0)  -->
<!DOCTYPE svg PUBLIC "-//W3C//DTD SVG 1.1//EN" "http://www.w3.org/Graphics/SVG/1.1/DTD/svg11.dtd">
<svg version="1.1" id="Layer_1" xmlns="http://www.w3.org/2000/svg" xmlns:xlink="http://www.w3.org/1999/xlink" x="0px" y="0px"
	 width="128px" height="128px" viewBox="0 0 128 128" enable-background="new 0 0 128 128" xml:space="preserve">
<g>
	<rect x="39.5" y="85.5" width="44" height="3"/>
	<rect x="39.5" y="96.5" width="44" height="3"/>
	<rect x="39.5" y="75.5" width="44" height="3"/>
	<path d="M39.5,67.5h44v-33h-44V67.5z M42.5,37.5h38v27h-38V37.5z"/>
	<path d="M93.5,32.467c0-6.61-4.034-10.967-10.644-10.967H42.467c-6.61,0-12.967,4.357-12.967,10.967v67.316
		c0,6.608,6.357,12.717,12.967,12.717h40.389c6.609,0,10.644-6.108,10.644-12.717V32.467z M87.5,100.517
		c0,3.305-2.679,5.983-5.983,5.983H41.483c-3.305,0-5.983-2.679-5.983-5.983V33.483c0-3.305,2.679-5.983,5.983-5.983h40.033
		c3.305,0,5.983,2.679,5.983,5.983V100.517z"/>
</g>
</svg>
