<?xml version="1.0" encoding="utf-8"?>
<!-- Generator: Adobe Illustrator 16.0.0, SVG Export Plug-In . SVG Version: 6.00 Build 0)  -->
<!DOCTYPE svg PUBLIC "-//W3C//DTD SVG 1.1//EN" "http://www.w3.org/Graphics/SVG/1.1/DTD/svg11.dtd">
<svg version="1.1" id="Layer_1" xmlns="http://www.w3.org/2000/svg" xmlns:xlink="http://www.w3.org/1999/xlink" x="0px" y="0px"
	 width="128px" height="128px" viewBox="0 0 128 128" enable-background="new 0 0 128 128" xml:space="preserve">
<g>
	<linearGradient id="SVGID_1_" gradientUnits="userSpaceOnUse" x1="64.0005" y1="97.9746" x2="64.0005" y2="11.0625">
		<stop  offset="0" style="stop-color:#808080"/>
		<stop  offset="1" style="stop-color:#9E9E9E"/>
	</linearGradient>
	<path fill="url(#SVGID_1_)" d="M106.782,36.109c-6.642-3.805-41.638-24.592-41.638-24.592c-0.413-0.304-0.654-0.455-1.145-0.455
		s-0.856,0.151-1.272,0.455c0,0-33.497,20.816-39.808,24.56c-1.349,0.799-3.957,2.21-3.957,4.358c0,0.328,0,9.229,0,11.312v0.444
		v41.256c0,2.625,2.356,4.527,4.978,4.527h80.781c2.625,0,4.315-1.902,4.315-4.527V52.309v-0.445v-9.5v-1.185
		c0-0.223,0-0.463,0-0.744C109.037,38.312,108.168,36.903,106.782,36.109z M65.566,77.318c-0.416,0.304-0.718,0.457-1.208,0.457
		c-0.491,0-1.04-0.153-1.458-0.457L25.284,55.426v-3.434V41.67l19.654-11.44l18.138-10.588l1.29-0.736l1.187,0.686l19.029,11.287
		l18.134,10.764v10.246v3.676L65.566,77.318z"/>
	<path d="M106.782,36.109c-6.642-3.805-41.638-24.592-41.638-24.592c-0.413-0.304-0.654-0.455-1.145-0.455s-0.856,0.151-1.272,0.455
		c0,0-33.497,20.816-39.808,24.56c-1.349,0.799-3.957,2.21-3.957,4.358c0,0.328,0,9.229,0,11.312v0.444v41.256
		c0,2.625,2.356,4.527,4.978,4.527h80.781c2.625,0,4.315-1.902,4.315-4.527V52.309v-0.445v-9.5v-1.185c0-0.223,0-0.463,0-0.744
		C109.037,38.312,108.168,36.903,106.782,36.109z M65.566,77.318c-0.416,0.304-0.718,0.457-1.208,0.457
		c-0.491,0-1.04-0.153-1.458-0.457L25.284,55.426v-3.434V41.67l19.654-11.44l18.138-10.588l1.29-0.736l1.187,0.686l19.029,11.287
		l18.134,10.764v10.246v3.676L65.566,77.318z"/>
</g>
<g>
	<g opacity="0">
		<rect fill="#231F20" width="128" height="128"/>
		<rect x="18.963" y="18.963" width="90.074" height="90.074"/>
	</g>
	<linearGradient id="SVGID_2_" gradientUnits="userSpaceOnUse" x1="64.0005" y1="109.0371" x2="64.0005" y2="18.9634">
		<stop  offset="0" style="stop-color:#D1D1D1"/>
		<stop  offset="1" style="stop-color:#E3E3E3"/>
	</linearGradient>
	<path fill="url(#SVGID_2_)" d="M79.423,45.289c0.817,1.839,1.238,3.917,1.238,6.239c0,1.698-0.187,3.162-0.55,4.394
		c-0.363,1.235-0.847,2.296-1.45,3.194c-0.605,0.894-1.297,1.695-2.068,2.396c-0.774,0.701-1.553,1.396-2.325,2.071
		c-0.923,0.773-1.768,1.522-2.54,2.246c-0.776,0.729-1.45,1.545-2.033,2.439c-0.576,0.896-1.027,1.948-1.346,3.153
		c-0.315,1.214-0.467,2.688-0.467,4.433h-7.845c0-2.135,0.107-3.935,0.331-5.408c0.215-1.477,0.564-2.771,1.052-3.889
		c0.479-1.109,1.075-2.088,1.775-2.934c0.699-0.851,1.538-1.687,2.506-2.51c0.771-0.674,1.512-1.305,2.216-1.884
		c0.701-0.588,1.331-1.221,1.885-1.931c0.557-0.7,0.991-1.484,1.313-2.354c0.312-0.874,0.469-1.915,0.469-3.118
		c0-1.454-0.256-2.701-0.769-3.744c-0.503-1.041-1.12-1.874-1.846-2.5c-0.725-0.63-1.5-1.093-2.319-1.386
		c-0.822-0.284-1.557-0.436-2.181-0.436c-3.002,0-5.216,0.98-6.644,2.947c-1.431,1.952-2.14,4.584-2.14,7.87h-8.278
		c0-2.656,0.398-5.076,1.2-7.251c0.793-2.187,1.954-4.043,3.479-5.593c1.525-1.546,3.368-2.747,5.52-3.59
		c2.152-0.85,4.561-1.276,7.221-1.276c2.23,0,4.297,0.326,6.21,0.981c1.911,0.651,3.583,1.598,5.009,2.825
		C77.473,41.911,78.601,43.441,79.423,45.289z M109.037,64c0,24.874-20.163,45.037-45.037,45.037S18.963,88.874,18.963,64
		S39.126,18.963,64,18.963S109.037,39.126,109.037,64z M102.717,64c0-21.349-17.368-38.716-38.717-38.716
		c-21.349,0-38.716,17.367-38.716,38.716c0,21.349,17.367,38.717,38.716,38.717C85.349,102.717,102.717,85.349,102.717,64z
		 M64,79.932c-3.055,0-5.531,2.477-5.531,5.531c0,3.054,2.476,5.531,5.531,5.531c3.052,0,5.531-2.478,5.531-5.531
		C69.531,82.408,67.052,79.932,64,79.932z"/>
</g>
</svg>
