<?xml version="1.0" encoding="utf-8"?>
<!-- Generator: Adobe Illustrator 16.0.0, SVG Export Plug-In . SVG Version: 6.00 Build 0)  -->
<!DOCTYPE svg PUBLIC "-//W3C//DTD SVG 1.1//EN" "http://www.w3.org/Graphics/SVG/1.1/DTD/svg11.dtd">
<svg version="1.1" id="Layer_1" xmlns="http://www.w3.org/2000/svg" xmlns:xlink="http://www.w3.org/1999/xlink" x="0px" y="0px"
	 width="128px" height="128px" viewBox="0 0 128 128" enable-background="new 0 0 128 128" xml:space="preserve">
<g>
	<g>
		<path d="M108.249,61.983L63.406,16.894L18.563,61.983c-1.495,1.503-1.495,3.938,0,5.44c1.494,1.502,3.916,1.502,5.41,0
			l39.433-39.648l39.432,39.648c1.494,1.502,3.915,1.502,5.411,0C109.741,65.921,109.741,63.486,108.249,61.983z"/>
		<path d="M31.5,66.963V106.5h22V80.813c0-2.551,3.013-2.313,5.549-2.313h10.714c2.535,0,2.737-0.237,2.737,2.313V106.5h21V66.963
			L62.46,36.266L31.5,66.963z"/>
	</g>
</g>
</svg>
