<?xml version="1.0" encoding="utf-8"?>
<!-- Generator: Adobe Illustrator 16.0.0, SVG Export Plug-In . SVG Version: 6.00 Build 0)  -->
<!DOCTYPE svg PUBLIC "-//W3C//DTD SVG 1.1//EN" "http://www.w3.org/Graphics/SVG/1.1/DTD/svg11.dtd">
<svg version="1.1" id="Layer_1" xmlns="http://www.w3.org/2000/svg" xmlns:xlink="http://www.w3.org/1999/xlink" x="0px" y="0px"
	 width="128px" height="128px" viewBox="0 0 128 128" enable-background="new 0 0 128 128" xml:space="preserve">
<g>
	<linearGradient id="SVGID_1_" gradientUnits="userSpaceOnUse" x1="64.0005" y1="97.9746" x2="64.0005" y2="11.0625">
		<stop  offset="0" style="stop-color:#808080"/>
		<stop  offset="1" style="stop-color:#9E9E9E"/>
	</linearGradient>
	<path fill="url(#SVGID_1_)" d="M106.782,36.109c-6.642-3.805-41.638-24.592-41.638-24.592c-0.413-0.304-0.654-0.455-1.145-0.455
		s-0.856,0.151-1.272,0.455c0,0-33.497,20.816-39.808,24.56c-1.349,0.799-3.957,2.21-3.957,4.358c0,0.328,0,9.229,0,11.312v0.444
		v41.256c0,2.625,2.356,4.527,4.978,4.527h80.781c2.625,0,4.315-1.902,4.315-4.527V52.309v-0.445v-9.5v-1.185
		c0-0.223,0-0.463,0-0.744C109.037,38.312,108.168,36.903,106.782,36.109z M65.566,77.318c-0.416,0.304-0.718,0.457-1.208,0.457
		c-0.491,0-1.04-0.153-1.458-0.457L25.284,55.426v-3.434V41.67l19.654-11.44l18.138-10.588l1.29-0.736l1.187,0.686l19.029,11.287
		l18.134,10.764v10.246v3.676L65.566,77.318z"/>
	<path d="M106.782,36.109c-6.642-3.805-41.638-24.592-41.638-24.592c-0.413-0.304-0.654-0.455-1.145-0.455s-0.856,0.151-1.272,0.455
		c0,0-33.497,20.816-39.808,24.56c-1.349,0.799-3.957,2.21-3.957,4.358c0,0.328,0,9.229,0,11.312v0.444v41.256
		c0,2.625,2.356,4.527,4.978,4.527h80.781c2.625,0,4.315-1.902,4.315-4.527V52.309v-0.445v-9.5v-1.185c0-0.223,0-0.463,0-0.744
		C109.037,38.312,108.168,36.903,106.782,36.109z M65.566,77.318c-0.416,0.304-0.718,0.457-1.208,0.457
		c-0.491,0-1.04-0.153-1.458-0.457L25.284,55.426v-3.434V41.67l19.654-11.44l18.138-10.588l1.29-0.736l1.187,0.686l19.029,11.287
		l18.134,10.764v10.246v3.676L65.566,77.318z"/>
</g>
</svg>
