<?xml version="1.0" encoding="utf-8"?>
<!-- Generator: Adobe Illustrator 16.0.0, SVG Export Plug-In . SVG Version: 6.00 Build 0)  -->
<!DOCTYPE svg PUBLIC "-//W3C//DTD SVG 1.1//EN" "http://www.w3.org/Graphics/SVG/1.1/DTD/svg11.dtd">
<svg version="1.1" id="Layer_1" xmlns="http://www.w3.org/2000/svg" xmlns:xlink="http://www.w3.org/1999/xlink" x="0px" y="0px"
	 width="128px" height="128px" viewBox="0 0 128 128" enable-background="new 0 0 128 128" xml:space="preserve">
<g>
	<path d="M64,26.074L64,26.074c3.491,0,6.321,2.838,6.321,6.325c0,3.494-2.83,6.32-6.321,6.32l0,0c-3.491,0-6.321-2.826-6.321-6.32
		C57.679,28.912,60.509,26.074,64,26.074z M64,57.687L64,57.687c3.491,0,6.321,2.823,6.321,6.318c0,3.486-2.83,6.32-6.321,6.32l0,0
		c-3.491,0-6.321-2.834-6.321-6.32C57.679,60.509,60.509,57.687,64,57.687z M64,89.29L64,89.29c3.491,0,6.321,2.832,6.321,6.318
		c0,3.495-2.83,6.317-6.321,6.317l0,0c-3.491,0-6.321-2.822-6.321-6.317C57.679,92.122,60.509,89.29,64,89.29z"/>
</g>
</svg>
