<?xml version="1.0" encoding="utf-8"?>
<!-- Generator: Adobe Illustrator 16.0.0, SVG Export Plug-In . SVG Version: 6.00 Build 0)  -->
<!DOCTYPE svg PUBLIC "-//W3C//DTD SVG 1.1//EN" "http://www.w3.org/Graphics/SVG/1.1/DTD/svg11.dtd">
<svg version="1.1" id="Layer_1" xmlns="http://www.w3.org/2000/svg" xmlns:xlink="http://www.w3.org/1999/xlink" x="0px" y="0px"
	 width="128px" height="128px" viewBox="0 0 128 128" enable-background="new 0 0 128 128" xml:space="preserve">
<g>
	<path d="M108.739,98.372L90.512,80.211c-1.4-1.397-3.478-1.674-5.167-0.874l-4.016-3.983l-0.002,0.002
		c5.114-6.053,8.203-13.874,8.203-22.418c0-19.2-15.565-34.765-34.766-34.765C35.564,18.172,20,33.737,20,52.938
		s15.564,34.765,34.765,34.765c8.514,0,16.309-3.064,22.353-8.145c-0.003,0.001-0.005,0.004-0.008,0.006l3.946,4.045
		c-0.804,1.686-0.524,3.754,0.875,5.148l18.229,18.16c1.776,1.771,4.658,1.771,6.435,0l2.145-2.139
		C110.517,103.011,110.517,100.142,108.739,98.372z M54.765,81.381c-15.684,0-28.444-12.759-28.444-28.443
		c0-15.685,12.76-28.444,28.444-28.444s28.444,12.759,28.444,28.444C83.209,68.622,70.448,81.381,54.765,81.381z"/>
</g>
</svg>
