<?xml version="1.0" encoding="utf-8"?>
<!-- Generator: Adobe Illustrator 16.0.0, SVG Export Plug-In . SVG Version: 6.00 Build 0)  -->
<!DOCTYPE svg PUBLIC "-//W3C//DTD SVG 1.1//EN" "http://www.w3.org/Graphics/SVG/1.1/DTD/svg11.dtd">
<svg version="1.1" id="Layer_1" xmlns="http://www.w3.org/2000/svg" xmlns:xlink="http://www.w3.org/1999/xlink" x="0px" y="0px"
	 width="128px" height="128px" viewBox="0 0 128 128" enable-background="new 0 0 128 128" xml:space="preserve">
<g>
	<path d="M106.7,57.6l-11.3-3.8L93.3,48L99,37.2c0.8-1.6,0.5-3.8-0.8-5.1l-1.8-1.8c-1.2-1.2-3.5-1.6-5.101-0.8L80.5,35l-5.8-2.4
		L71,21.3c-0.5-1.7-2.4-2.8-4.2-2.8h-2.5c-1.7,0-3.6,1.1-4.2,2.8l-3.9,11.4L50.4,35L43,31.3l0,0l-3.4-1.7c-1.6-0.8-3.8-0.4-5.1,0.8
		l-1.8,1.8c-1.2,1.2-1.6,3.5-0.8,5.1L37.4,48L35,53.8l-12,3.8c-1.7,0.5-3.5,2.4-3.5,4.2v2.5c0,1.7,1.9,3.601,3.5,4.2l11.7,3.8
		l2.5,5.8L31.9,89c-0.8,1.6-0.4,3.8,0.8,5.1l1.8,1.801c1.2,1.199,3.5,1.6,5.1,0.8l10.8-5.5l5.8,2.399l3.9,11.7
		c0.5,1.7,2.4,3.2,4.2,3.2h2.5c1.7,0,3.601-1.5,4.2-3.2l3.7-11.6l5.8-2.5L91.4,96.6c1.6,0.801,3.8,0.4,5.1-0.8l1.8-1.8
		c1.2-1.2,1.601-3.5,0.8-5.1L93.6,78l2.101-5.8l11-3.8c1.6-0.5,2.8-2.4,2.8-4.2v-2.5C109.5,60.1,108.3,58.2,106.7,57.6z M65.5,81.2
		c-10,0-18.1-8.101-18.1-18.1c0-10,8.1-18.1,18.1-18.1s18.1,8.1,18.1,18.1C83.6,73.1,75.5,81.2,65.5,81.2z"/>
</g>
</svg>
