<?xml version="1.0" encoding="utf-8"?>
<!-- Generator: Adobe Illustrator 16.0.0, SVG Export Plug-In . SVG Version: 6.00 Build 0)  -->
<!DOCTYPE svg PUBLIC "-//W3C//DTD SVG 1.1//EN" "http://www.w3.org/Graphics/SVG/1.1/DTD/svg11.dtd">
<svg version="1.1" id="Layer_1" xmlns="http://www.w3.org/2000/svg" xmlns:xlink="http://www.w3.org/1999/xlink" x="0px" y="0px"
	 width="128px" height="128px" viewBox="0 0 128 128" enable-background="new 0 0 128 128" xml:space="preserve">
<g>
	<path d="M103.481,31.358H47.037H36.062H23.519c-2.6,0-4.704,2.107-4.704,4.704v32.926v1.568V89.37c0,2.599,2.107,4.704,4.704,4.704
		h10.975v15.679c0,2.588,1.498,3.206,3.326,1.378l17.057-17.057h23.518h25.087c2.597,0,4.704-2.107,4.704-4.704V75.26V50.173V36.062
		C108.186,33.465,106.078,31.358,103.481,31.358z M94.074,72.123H32.926V67.42h61.148V72.123z M94.074,58.012H32.926v-4.704h61.148
		V58.012z"/>
</g>
</svg>
