<?xml version="1.0" encoding="utf-8"?>
<!-- Generator: Adobe Illustrator 16.0.0, SVG Export Plug-In . SVG Version: 6.00 Build 0)  -->
<!DOCTYPE svg PUBLIC "-//W3C//DTD SVG 1.1//EN" "http://www.w3.org/Graphics/SVG/1.1/DTD/svg11.dtd">
<svg version="1.1" id="Layer_1" xmlns="http://www.w3.org/2000/svg" xmlns:xlink="http://www.w3.org/1999/xlink" x="0px" y="0px"
	 width="128px" height="128px" viewBox="0 0 128 128" enable-background="new 0 0 128 128" xml:space="preserve">
<g>
	<g>
		<path fill="#231F20" d="M79.59,74.1c0-8.477,6.889-15.421,15.355-15.491c1.47,0.011,2.887,0.241,4.232,0.634V36.217
			c0-2.238-1.958-4.197-4.197-4.197H20.826c-2.239,0-4.197,1.959-4.197,4.197v48.97c0,2.238,1.958,4.197,4.197,4.197h4.198
			l2.798,2.799h8.395l2.798-2.799h36.378v-4.197c0-3.106,1.694-5.823,4.208-7.274L79.59,74.1z"/>
		<path fill="#231F20" d="M48.809,25.024h18.189v4.197h5.597v-5.597c0-2.238-1.535-4.198-4.198-4.198H47.41
			c-2.666,0-4.197,1.96-4.197,4.198v5.597h5.597V25.024z"/>
		<path fill="#231F20" d="M106.174,80.989h-0.021c0.013-4.092,0.021-6.901,0.021-6.901c0-6.19-5.014-11.231-11.193-11.282
			c-6.18,0.051-11.192,5.092-11.192,11.282c0,0,0.008,2.81,0.021,6.901h-0.021c-2.317,0-4.198,1.88-4.198,4.197v18.188
			c0,0.201,0.033,0.393,0.059,0.585c0.019,0.123,0.032,0.247,0.06,0.366c0.034,0.148,0.084,0.287,0.134,0.427
			c0.037,0.114,0.073,0.229,0.123,0.338c0.06,0.135,0.137,0.261,0.21,0.389c0.061,0.102,0.115,0.206,0.182,0.303
			c0.085,0.121,0.185,0.23,0.282,0.342c0.076,0.087,0.146,0.178,0.228,0.257c0.109,0.107,0.232,0.197,0.351,0.29
			c0.09,0.068,0.171,0.145,0.264,0.206c0.135,0.089,0.28,0.157,0.422,0.229c0.096,0.049,0.183,0.106,0.281,0.146
			c0.166,0.069,0.341,0.114,0.515,0.16c0.087,0.024,0.17,0.061,0.258,0.078c0.271,0.053,0.548,0.083,0.832,0.083h22.386
			c0.284,0,0.562-0.03,0.83-0.083c0.09-0.018,0.171-0.054,0.259-0.078c0.173-0.046,0.35-0.091,0.516-0.16
			c0.098-0.039,0.186-0.097,0.281-0.146c0.142-0.071,0.287-0.14,0.421-0.229c0.092-0.062,0.175-0.138,0.263-0.206
			c0.119-0.093,0.243-0.183,0.352-0.29c0.082-0.079,0.152-0.17,0.227-0.257c0.1-0.111,0.198-0.221,0.283-0.342
			c0.067-0.097,0.121-0.201,0.182-0.303c0.074-0.128,0.15-0.254,0.211-0.389c0.049-0.108,0.084-0.224,0.123-0.338
			c0.049-0.14,0.098-0.278,0.134-0.427c0.027-0.119,0.041-0.243,0.058-0.366c0.026-0.192,0.06-0.384,0.06-0.585V85.187
			C110.371,82.869,108.491,80.989,106.174,80.989z M96.38,95.483v3.694H94.98h-1.399v-3.694c-1.284-0.545-2.187-1.817-2.187-3.301
			c0-1.979,1.605-3.585,3.586-3.585c1.979,0,3.585,1.605,3.585,3.585C98.565,93.666,97.664,94.938,96.38,95.483z M101.977,80.989
			H87.985v-6.968c0-3.891,3.117-7.051,6.995-7.104c3.878,0.053,6.996,3.213,6.996,7.104V80.989z"/>
	</g>
</g>
</svg>
